<mxfile host="app.diagrams.net" agent="Mozilla/5.0 (Windows NT 10.0; Win64; x64) AppleWebKit/537.36 (KHTML, like Gecko) Chrome/139.0.0.0 Safari/537.36" version="28.0.7">
  <diagram name="Page-1" id="CcgmI849JebtVl90vX0I">
    <mxGraphModel dx="2668" dy="788" grid="1" gridSize="10" guides="1" tooltips="1" connect="1" arrows="1" fold="1" page="1" pageScale="1" pageWidth="850" pageHeight="1100" math="0" shadow="0">
      <root>
        <mxCell id="0" />
        <mxCell id="1" parent="0" />
        <mxCell id="8C6wPyvQL707eCMn2yuK-1" value="&lt;div style=&quot;text-align: left;&quot;&gt;&lt;span style=&quot;font-size: 24px; background-color: transparent; color: light-dark(rgb(0, 0, 0), rgb(255, 255, 255));&quot;&gt;Implement a 4-stage pipeline to evaluate the following expression:&lt;/span&gt;&lt;/div&gt;&lt;font style=&quot;font-size: 24px;&quot;&gt;&lt;div style=&quot;text-align: left;&quot;&gt;&lt;span style=&quot;background-color: transparent; color: light-dark(rgb(0, 0, 0), rgb(255, 255, 255));&quot;&gt;&lt;b&gt;(A+B) + (A+B-C) + (A+B-C+D) + (A+B-C+D)*2&lt;/b&gt;&lt;/span&gt;&lt;/div&gt;&lt;div style=&quot;text-align: left;&quot;&gt;&lt;span style=&quot;background-color: transparent; color: light-dark(rgb(0, 0, 0), rgb(255, 255, 255)); text-align: center;&quot;&gt;Simplified form: &lt;b&gt;5A + 5B - 4C + 3D&lt;/b&gt;&lt;/span&gt;&lt;/div&gt;&lt;/font&gt;" style="text;html=1;align=center;verticalAlign=middle;whiteSpace=wrap;rounded=0;" parent="1" vertex="1">
          <mxGeometry x="-30" y="620" width="830" height="90" as="geometry" />
        </mxCell>
        <mxCell id="cPhD02x5GdP_BrtT_khT-4" style="edgeStyle=orthogonalEdgeStyle;rounded=0;orthogonalLoop=1;jettySize=auto;html=1;exitX=1;exitY=0.5;exitDx=0;exitDy=0;entryX=0.5;entryY=0;entryDx=0;entryDy=0;" edge="1" parent="1" source="xzRCNILNRrcAVQ5zMBgT-1" target="xzRCNILNRrcAVQ5zMBgT-66">
          <mxGeometry relative="1" as="geometry" />
        </mxCell>
        <mxCell id="xzRCNILNRrcAVQ5zMBgT-1" value="&lt;h1&gt;&lt;font style=&quot;color: light-dark(rgb(0, 0, 0), rgb(255, 255, 255));&quot;&gt;5A&lt;/font&gt;&lt;/h1&gt;" style="rounded=0;whiteSpace=wrap;html=1;fillColor=light-dark(#d80073, #f0478b);strokeColor=#A50040;fontColor=#ffffff;" parent="1" vertex="1">
          <mxGeometry x="400" y="831.5" width="60" height="85" as="geometry" />
        </mxCell>
        <mxCell id="xzRCNILNRrcAVQ5zMBgT-12" style="edgeStyle=orthogonalEdgeStyle;rounded=0;orthogonalLoop=1;jettySize=auto;html=1;exitX=1;exitY=0.5;exitDx=0;exitDy=0;" parent="1" source="xzRCNILNRrcAVQ5zMBgT-2" target="xzRCNILNRrcAVQ5zMBgT-7" edge="1">
          <mxGeometry relative="1" as="geometry" />
        </mxCell>
        <mxCell id="xzRCNILNRrcAVQ5zMBgT-2" value="&lt;h1&gt;&lt;b&gt;&lt;font&gt;&amp;lt;&amp;lt; 2&lt;/font&gt;&lt;/b&gt;&lt;/h1&gt;" style="rounded=0;whiteSpace=wrap;html=1;" parent="1" vertex="1">
          <mxGeometry x="141" y="807.5" width="90" height="60" as="geometry" />
        </mxCell>
        <mxCell id="xzRCNILNRrcAVQ5zMBgT-5" style="edgeStyle=orthogonalEdgeStyle;rounded=0;orthogonalLoop=1;jettySize=auto;html=1;exitX=1;exitY=0.5;exitDx=0;exitDy=0;entryX=0;entryY=0.5;entryDx=0;entryDy=0;" parent="1" target="xzRCNILNRrcAVQ5zMBgT-2" edge="1">
          <mxGeometry relative="1" as="geometry">
            <mxPoint x="110" y="837.5" as="sourcePoint" />
          </mxGeometry>
        </mxCell>
        <mxCell id="xzRCNILNRrcAVQ5zMBgT-15" style="edgeStyle=orthogonalEdgeStyle;rounded=0;orthogonalLoop=1;jettySize=auto;html=1;exitX=1;exitY=0.5;exitDx=0;exitDy=0;entryX=0;entryY=0.5;entryDx=0;entryDy=0;" parent="1" source="xzRCNILNRrcAVQ5zMBgT-7" target="xzRCNILNRrcAVQ5zMBgT-1" edge="1">
          <mxGeometry relative="1" as="geometry" />
        </mxCell>
        <mxCell id="xzRCNILNRrcAVQ5zMBgT-7" value="&lt;h1&gt;&lt;font style=&quot;font-size: 34px;&quot;&gt;&amp;nbsp;+&lt;/font&gt;&lt;/h1&gt;" style="shape=step;perimeter=stepPerimeter;whiteSpace=wrap;html=1;fixedSize=1;" parent="1" vertex="1">
          <mxGeometry x="290" y="834" width="70" height="80" as="geometry" />
        </mxCell>
        <mxCell id="xzRCNILNRrcAVQ5zMBgT-9" value="&lt;h1&gt;&lt;font style=&quot;color: light-dark(rgb(0, 0, 0), rgb(255, 255, 255));&quot;&gt;A&lt;/font&gt;&lt;/h1&gt;" style="rounded=0;whiteSpace=wrap;html=1;fillColor=#f5f5f5;strokeColor=#666666;gradientColor=#b3b3b3;" parent="1" vertex="1">
          <mxGeometry x="40" y="807.5" width="70" height="60" as="geometry" />
        </mxCell>
        <mxCell id="xzRCNILNRrcAVQ5zMBgT-11" style="edgeStyle=orthogonalEdgeStyle;rounded=0;orthogonalLoop=1;jettySize=auto;html=1;exitX=1;exitY=0.5;exitDx=0;exitDy=0;" parent="1" source="xzRCNILNRrcAVQ5zMBgT-10" target="xzRCNILNRrcAVQ5zMBgT-7" edge="1">
          <mxGeometry relative="1" as="geometry" />
        </mxCell>
        <mxCell id="xzRCNILNRrcAVQ5zMBgT-10" value="&lt;h1&gt;A&lt;/h1&gt;" style="rounded=0;whiteSpace=wrap;html=1;" parent="1" vertex="1">
          <mxGeometry x="141" y="880" width="89" height="60" as="geometry" />
        </mxCell>
        <mxCell id="cPhD02x5GdP_BrtT_khT-6" style="edgeStyle=orthogonalEdgeStyle;rounded=0;orthogonalLoop=1;jettySize=auto;html=1;exitX=1;exitY=0.5;exitDx=0;exitDy=0;entryX=0;entryY=0.5;entryDx=0;entryDy=0;" edge="1" parent="1" source="xzRCNILNRrcAVQ5zMBgT-14" target="xzRCNILNRrcAVQ5zMBgT-63">
          <mxGeometry relative="1" as="geometry" />
        </mxCell>
        <mxCell id="xzRCNILNRrcAVQ5zMBgT-14" value="&lt;h1&gt;&lt;font style=&quot;color: light-dark(rgb(0, 0, 0), rgb(255, 255, 255));&quot;&gt;B&lt;/font&gt;&lt;/h1&gt;" style="rounded=0;whiteSpace=wrap;html=1;fillColor=#1ba1e2;fontColor=#ffffff;strokeColor=#006EAF;" parent="1" vertex="1">
          <mxGeometry x="400" y="916.5" width="60" height="85" as="geometry" />
        </mxCell>
        <mxCell id="xzRCNILNRrcAVQ5zMBgT-17" style="edgeStyle=orthogonalEdgeStyle;rounded=0;orthogonalLoop=1;jettySize=auto;html=1;entryX=0;entryY=0.5;entryDx=0;entryDy=0;" parent="1" source="xzRCNILNRrcAVQ5zMBgT-16" target="xzRCNILNRrcAVQ5zMBgT-14" edge="1">
          <mxGeometry relative="1" as="geometry" />
        </mxCell>
        <mxCell id="xzRCNILNRrcAVQ5zMBgT-16" value="&lt;h1&gt;&lt;font style=&quot;color: light-dark(rgb(0, 0, 0), rgb(255, 255, 255));&quot;&gt;B&lt;/font&gt;&lt;/h1&gt;" style="rounded=0;whiteSpace=wrap;html=1;fillColor=#f5f5f5;strokeColor=#666666;gradientColor=#b3b3b3;" parent="1" vertex="1">
          <mxGeometry x="40" y="929.5" width="70" height="60" as="geometry" />
        </mxCell>
        <mxCell id="xzRCNILNRrcAVQ5zMBgT-18" value="&lt;h1 style=&quot;margin-top: 0px;&quot;&gt;STAGE 1&lt;/h1&gt;" style="text;html=1;whiteSpace=wrap;overflow=hidden;rounded=0;" parent="1" vertex="1">
          <mxGeometry x="160" y="1211.25" width="110" height="40" as="geometry" />
        </mxCell>
        <mxCell id="xzRCNILNRrcAVQ5zMBgT-22" value="&lt;h4 style=&quot;margin-top: 0px;&quot;&gt;Input&lt;/h4&gt;" style="text;html=1;whiteSpace=wrap;overflow=hidden;rounded=0;align=center;" parent="1" vertex="1">
          <mxGeometry x="-20" y="821.25" width="50" height="32.5" as="geometry" />
        </mxCell>
        <mxCell id="xzRCNILNRrcAVQ5zMBgT-24" value="&lt;h4 style=&quot;margin-top: 0px;&quot;&gt;Stage 2 Input&lt;/h4&gt;" style="text;html=1;whiteSpace=wrap;overflow=hidden;rounded=0;align=center;" parent="1" vertex="1">
          <mxGeometry x="-20" y="942.75" width="50" height="32.5" as="geometry" />
        </mxCell>
        <mxCell id="xzRCNILNRrcAVQ5zMBgT-25" value="&lt;h4 style=&quot;margin-top: 0px;&quot;&gt;4A + A = 5A = Stage1_out&lt;/h4&gt;" style="text;html=1;whiteSpace=wrap;overflow=hidden;rounded=0;align=center;" parent="1" vertex="1">
          <mxGeometry x="245" y="807.5" width="155" height="32.5" as="geometry" />
        </mxCell>
        <mxCell id="xzRCNILNRrcAVQ5zMBgT-26" value="&lt;h4 style=&quot;margin-top: 0px;&quot;&gt;Pipeline Register &lt;span style=&quot;font-weight: 400;&quot;&gt;FF1&lt;/span&gt;&lt;/h4&gt;" style="text;html=1;whiteSpace=wrap;overflow=hidden;rounded=0;align=center;" parent="1" vertex="1">
          <mxGeometry x="370" y="1180" width="140" height="31.25" as="geometry" />
        </mxCell>
        <mxCell id="xzRCNILNRrcAVQ5zMBgT-27" value="&lt;h4 style=&quot;margin-top: 0px;&quot;&gt;&lt;br&gt;&lt;/h4&gt;" style="text;html=1;whiteSpace=wrap;overflow=hidden;rounded=0;align=center;" parent="1" vertex="1">
          <mxGeometry x="405" y="884" width="50" height="32.5" as="geometry" />
        </mxCell>
        <mxCell id="xzRCNILNRrcAVQ5zMBgT-110" style="edgeStyle=orthogonalEdgeStyle;rounded=0;orthogonalLoop=1;jettySize=auto;html=1;exitX=1;exitY=0.5;exitDx=0;exitDy=0;entryX=0;entryY=0.5;entryDx=0;entryDy=0;" parent="1" source="xzRCNILNRrcAVQ5zMBgT-50" target="xzRCNILNRrcAVQ5zMBgT-81" edge="1">
          <mxGeometry relative="1" as="geometry" />
        </mxCell>
        <mxCell id="xzRCNILNRrcAVQ5zMBgT-50" value="&lt;h1&gt;D&lt;/h1&gt;" style="rounded=0;whiteSpace=wrap;html=1;fillColor=#b1ddf0;strokeColor=#10739e;" parent="1" vertex="1">
          <mxGeometry x="400" y="1086.5" width="60" height="85" as="geometry" />
        </mxCell>
        <mxCell id="xzRCNILNRrcAVQ5zMBgT-111" style="edgeStyle=orthogonalEdgeStyle;rounded=0;orthogonalLoop=1;jettySize=auto;html=1;exitX=1;exitY=0.5;exitDx=0;exitDy=0;entryX=0;entryY=0.5;entryDx=0;entryDy=0;" parent="1" source="xzRCNILNRrcAVQ5zMBgT-51" target="xzRCNILNRrcAVQ5zMBgT-82" edge="1">
          <mxGeometry relative="1" as="geometry" />
        </mxCell>
        <mxCell id="xzRCNILNRrcAVQ5zMBgT-51" value="&lt;h1&gt;C&lt;/h1&gt;" style="rounded=0;whiteSpace=wrap;html=1;fillColor=#fa6800;fontColor=#000000;strokeColor=#C73500;" parent="1" vertex="1">
          <mxGeometry x="400" y="1001.5" width="60" height="85" as="geometry" />
        </mxCell>
        <mxCell id="xzRCNILNRrcAVQ5zMBgT-58" style="edgeStyle=orthogonalEdgeStyle;rounded=0;orthogonalLoop=1;jettySize=auto;html=1;exitX=1;exitY=0.5;exitDx=0;exitDy=0;entryX=0;entryY=0.5;entryDx=0;entryDy=0;" parent="1" source="xzRCNILNRrcAVQ5zMBgT-54" target="xzRCNILNRrcAVQ5zMBgT-51" edge="1">
          <mxGeometry relative="1" as="geometry">
            <mxPoint x="390" y="1040" as="targetPoint" />
          </mxGeometry>
        </mxCell>
        <mxCell id="xzRCNILNRrcAVQ5zMBgT-54" value="&lt;h1&gt;&lt;font style=&quot;color: light-dark(rgb(0, 0, 0), rgb(255, 255, 255));&quot;&gt;C&lt;/font&gt;&lt;/h1&gt;" style="rounded=0;whiteSpace=wrap;html=1;fillColor=#f5f5f5;strokeColor=#666666;gradientColor=#b3b3b3;" parent="1" vertex="1">
          <mxGeometry x="40" y="1014" width="70" height="60" as="geometry" />
        </mxCell>
        <mxCell id="xzRCNILNRrcAVQ5zMBgT-59" style="edgeStyle=orthogonalEdgeStyle;rounded=0;orthogonalLoop=1;jettySize=auto;html=1;exitX=1;exitY=0.5;exitDx=0;exitDy=0;entryX=0;entryY=0.5;entryDx=0;entryDy=0;" parent="1" source="xzRCNILNRrcAVQ5zMBgT-55" target="xzRCNILNRrcAVQ5zMBgT-50" edge="1">
          <mxGeometry relative="1" as="geometry" />
        </mxCell>
        <mxCell id="xzRCNILNRrcAVQ5zMBgT-55" value="&lt;h1&gt;&lt;font style=&quot;color: light-dark(rgb(0, 0, 0), rgb(255, 255, 255));&quot;&gt;D&lt;/font&gt;&lt;/h1&gt;" style="rounded=0;whiteSpace=wrap;html=1;fillColor=#f5f5f5;strokeColor=#666666;gradientColor=#b3b3b3;" parent="1" vertex="1">
          <mxGeometry x="40" y="1099" width="70" height="60" as="geometry" />
        </mxCell>
        <mxCell id="xzRCNILNRrcAVQ5zMBgT-56" value="&lt;h4 style=&quot;margin-top: 0px;&quot;&gt;Stage 3 Input&lt;/h4&gt;" style="text;html=1;whiteSpace=wrap;overflow=hidden;rounded=0;align=center;" parent="1" vertex="1">
          <mxGeometry x="-20" y="1027.75" width="50" height="32.5" as="geometry" />
        </mxCell>
        <mxCell id="xzRCNILNRrcAVQ5zMBgT-57" value="&lt;h4 style=&quot;margin-top: 0px;&quot;&gt;Stage 4 Input&lt;/h4&gt;" style="text;html=1;whiteSpace=wrap;overflow=hidden;rounded=0;align=center;" parent="1" vertex="1">
          <mxGeometry x="-20" y="1112.75" width="50" height="32.5" as="geometry" />
        </mxCell>
        <mxCell id="xzRCNILNRrcAVQ5zMBgT-61" value="&lt;h1&gt;&lt;font style=&quot;color: light-dark(rgb(255, 255, 255), rgb(255, 255, 255));&quot;&gt;S2&lt;/font&gt;&lt;/h1&gt;" style="rounded=0;whiteSpace=wrap;html=1;fillColor=light-dark(#d80073, #f0478b);strokeColor=#A50040;fontColor=#ffffff;" parent="1" vertex="1">
          <mxGeometry x="724" y="919" width="60" height="80" as="geometry" />
        </mxCell>
        <mxCell id="cPhD02x5GdP_BrtT_khT-3" style="edgeStyle=orthogonalEdgeStyle;rounded=0;orthogonalLoop=1;jettySize=auto;html=1;exitX=1;exitY=0.5;exitDx=0;exitDy=0;entryX=0;entryY=0.5;entryDx=0;entryDy=0;" edge="1" parent="1" source="xzRCNILNRrcAVQ5zMBgT-63" target="xzRCNILNRrcAVQ5zMBgT-66">
          <mxGeometry relative="1" as="geometry" />
        </mxCell>
        <mxCell id="xzRCNILNRrcAVQ5zMBgT-63" value="&lt;h1&gt;&lt;b&gt;&lt;font&gt;&amp;lt;&amp;lt; 2&lt;/font&gt;&lt;/b&gt;&lt;/h1&gt;" style="rounded=0;whiteSpace=wrap;html=1;" parent="1" vertex="1">
          <mxGeometry x="500" y="937" width="90" height="45" as="geometry" />
        </mxCell>
        <mxCell id="xzRCNILNRrcAVQ5zMBgT-126" style="edgeStyle=orthogonalEdgeStyle;rounded=0;orthogonalLoop=1;jettySize=auto;html=1;exitX=1;exitY=0.5;exitDx=0;exitDy=0;entryX=0;entryY=0.5;entryDx=0;entryDy=0;" parent="1" source="xzRCNILNRrcAVQ5zMBgT-66" target="xzRCNILNRrcAVQ5zMBgT-61" edge="1">
          <mxGeometry relative="1" as="geometry" />
        </mxCell>
        <mxCell id="xzRCNILNRrcAVQ5zMBgT-66" value="&lt;h1&gt;&lt;font style=&quot;font-size: 34px;&quot;&gt;&amp;nbsp;+&lt;/font&gt;&lt;/h1&gt;" style="shape=step;perimeter=stepPerimeter;whiteSpace=wrap;html=1;fixedSize=1;" parent="1" vertex="1">
          <mxGeometry x="630" y="917" width="70" height="84" as="geometry" />
        </mxCell>
        <mxCell id="xzRCNILNRrcAVQ5zMBgT-73" value="&lt;h1 style=&quot;margin-top: 0px;&quot;&gt;STAGE 2&lt;/h1&gt;" style="text;html=1;whiteSpace=wrap;overflow=hidden;rounded=0;" parent="1" vertex="1">
          <mxGeometry x="560" y="1211.25" width="110" height="40" as="geometry" />
        </mxCell>
        <mxCell id="xzRCNILNRrcAVQ5zMBgT-77" value="&lt;h4 style=&quot;margin-top: 0px;&quot;&gt;5A + 4B + B = 5A + 5B = Stage2_out&lt;/h4&gt;" style="text;html=1;whiteSpace=wrap;overflow=hidden;rounded=0;align=center;" parent="1" vertex="1">
          <mxGeometry x="550" y="842.5" width="210" height="32.5" as="geometry" />
        </mxCell>
        <mxCell id="xzRCNILNRrcAVQ5zMBgT-78" value="&lt;h4 style=&quot;margin-top: 0px;&quot;&gt;Pipeline Register &lt;span style=&quot;font-weight: 400;&quot;&gt;FF2&lt;/span&gt;&lt;/h4&gt;" style="text;html=1;whiteSpace=wrap;overflow=hidden;rounded=0;align=center;" parent="1" vertex="1">
          <mxGeometry x="694" y="1175.75" width="126" height="31.25" as="geometry" />
        </mxCell>
        <mxCell id="xzRCNILNRrcAVQ5zMBgT-80" value="&lt;h4 style=&quot;margin-top: 0px;&quot;&gt;s1[1]&lt;/h4&gt;" style="text;html=1;whiteSpace=wrap;overflow=hidden;rounded=0;align=center;" parent="1" vertex="1">
          <mxGeometry x="729" y="1054" width="50" height="32.5" as="geometry" />
        </mxCell>
        <mxCell id="xzRCNILNRrcAVQ5zMBgT-147" style="edgeStyle=orthogonalEdgeStyle;rounded=0;orthogonalLoop=1;jettySize=auto;html=1;exitX=1;exitY=0.5;exitDx=0;exitDy=0;entryX=0;entryY=0.5;entryDx=0;entryDy=0;" parent="1" source="xzRCNILNRrcAVQ5zMBgT-81" target="xzRCNILNRrcAVQ5zMBgT-137" edge="1">
          <mxGeometry relative="1" as="geometry" />
        </mxCell>
        <mxCell id="cPhD02x5GdP_BrtT_khT-15" style="edgeStyle=orthogonalEdgeStyle;rounded=0;orthogonalLoop=1;jettySize=auto;html=1;exitX=1;exitY=0.5;exitDx=0;exitDy=0;entryX=0;entryY=0.5;entryDx=0;entryDy=0;" edge="1" parent="1" source="xzRCNILNRrcAVQ5zMBgT-82" target="xzRCNILNRrcAVQ5zMBgT-129">
          <mxGeometry relative="1" as="geometry" />
        </mxCell>
        <mxCell id="xzRCNILNRrcAVQ5zMBgT-82" value="&lt;h1&gt;C&lt;/h1&gt;" style="rounded=0;whiteSpace=wrap;html=1;fillColor=#fa6800;fontColor=#000000;strokeColor=#C73500;" parent="1" vertex="1">
          <mxGeometry x="724" y="1001.5" width="60" height="85" as="geometry" />
        </mxCell>
        <mxCell id="xzRCNILNRrcAVQ5zMBgT-81" value="&lt;h1&gt;D&lt;/h1&gt;" style="rounded=0;whiteSpace=wrap;html=1;fillColor=#b1ddf0;strokeColor=#10739e;" parent="1" vertex="1">
          <mxGeometry x="724" y="1086.5" width="60" height="85" as="geometry" />
        </mxCell>
        <mxCell id="cPhD02x5GdP_BrtT_khT-17" style="edgeStyle=orthogonalEdgeStyle;rounded=0;orthogonalLoop=1;jettySize=auto;html=1;exitX=1;exitY=0.5;exitDx=0;exitDy=0;entryX=0;entryY=0.5;entryDx=0;entryDy=0;" edge="1" parent="1" source="xzRCNILNRrcAVQ5zMBgT-129" target="xzRCNILNRrcAVQ5zMBgT-131">
          <mxGeometry relative="1" as="geometry" />
        </mxCell>
        <mxCell id="xzRCNILNRrcAVQ5zMBgT-129" value="&lt;h1&gt;&lt;b&gt;&lt;font&gt;&amp;lt;&amp;lt; 2&lt;/font&gt;&lt;/b&gt;&lt;/h1&gt;" style="rounded=0;whiteSpace=wrap;html=1;" parent="1" vertex="1">
          <mxGeometry x="825" y="1022" width="84" height="42.5" as="geometry" />
        </mxCell>
        <mxCell id="cPhD02x5GdP_BrtT_khT-16" style="edgeStyle=orthogonalEdgeStyle;rounded=0;orthogonalLoop=1;jettySize=auto;html=1;exitX=1;exitY=0.5;exitDx=0;exitDy=0;" edge="1" parent="1" source="xzRCNILNRrcAVQ5zMBgT-131" target="xzRCNILNRrcAVQ5zMBgT-138">
          <mxGeometry relative="1" as="geometry" />
        </mxCell>
        <mxCell id="xzRCNILNRrcAVQ5zMBgT-131" value="&lt;h1&gt;&lt;font style=&quot;font-size: 46px;&quot;&gt;&amp;nbsp;-&lt;/font&gt;&lt;/h1&gt;" style="shape=step;perimeter=stepPerimeter;whiteSpace=wrap;html=1;fixedSize=1;align=center;" parent="1" vertex="1">
          <mxGeometry x="940" y="972" width="70" height="82.75" as="geometry" />
        </mxCell>
        <mxCell id="xzRCNILNRrcAVQ5zMBgT-133" value="&lt;h4 style=&quot;margin-top: 0px;&quot;&gt;5A + 5B - 4C = Stage3_out&lt;/h4&gt;" style="text;html=1;whiteSpace=wrap;overflow=hidden;rounded=0;align=center;" parent="1" vertex="1">
          <mxGeometry x="877" y="945.25" width="170" height="32.5" as="geometry" />
        </mxCell>
        <mxCell id="cPhD02x5GdP_BrtT_khT-32" style="edgeStyle=orthogonalEdgeStyle;rounded=0;orthogonalLoop=1;jettySize=auto;html=1;exitX=1;exitY=0.5;exitDx=0;exitDy=0;entryX=0;entryY=0.5;entryDx=0;entryDy=0;" edge="1" parent="1" source="xzRCNILNRrcAVQ5zMBgT-137" target="cPhD02x5GdP_BrtT_khT-22">
          <mxGeometry relative="1" as="geometry" />
        </mxCell>
        <mxCell id="cPhD02x5GdP_BrtT_khT-35" style="edgeStyle=orthogonalEdgeStyle;rounded=0;orthogonalLoop=1;jettySize=auto;html=1;exitX=1;exitY=0.25;exitDx=0;exitDy=0;entryX=0;entryY=0.25;entryDx=0;entryDy=0;" edge="1" parent="1" source="xzRCNILNRrcAVQ5zMBgT-137" target="cPhD02x5GdP_BrtT_khT-24">
          <mxGeometry relative="1" as="geometry">
            <Array as="points">
              <mxPoint x="1120" y="1079" />
              <mxPoint x="1120" y="1004" />
            </Array>
          </mxGeometry>
        </mxCell>
        <mxCell id="xzRCNILNRrcAVQ5zMBgT-137" value="&lt;h1&gt;D&lt;/h1&gt;" style="rounded=0;whiteSpace=wrap;html=1;fillColor=#b1ddf0;strokeColor=#10739e;" parent="1" vertex="1">
          <mxGeometry x="1042" y="1057.5" width="60" height="85" as="geometry" />
        </mxCell>
        <mxCell id="xzRCNILNRrcAVQ5zMBgT-138" value="&lt;h1&gt;S3&lt;/h1&gt;" style="rounded=0;whiteSpace=wrap;html=1;fillColor=#fa6800;fontColor=#000000;strokeColor=#C73500;" parent="1" vertex="1">
          <mxGeometry x="1042" y="970.5" width="60" height="85" as="geometry" />
        </mxCell>
        <mxCell id="xzRCNILNRrcAVQ5zMBgT-151" style="edgeStyle=orthogonalEdgeStyle;rounded=0;orthogonalLoop=1;jettySize=auto;html=1;exitX=1.05;exitY=0.838;exitDx=0;exitDy=0;entryX=0.111;entryY=0.178;entryDx=0;entryDy=0;entryPerimeter=0;exitPerimeter=0;" parent="1" source="xzRCNILNRrcAVQ5zMBgT-61" target="xzRCNILNRrcAVQ5zMBgT-131" edge="1">
          <mxGeometry relative="1" as="geometry" />
        </mxCell>
        <mxCell id="cPhD02x5GdP_BrtT_khT-14" style="edgeStyle=orthogonalEdgeStyle;rounded=0;orthogonalLoop=1;jettySize=auto;html=1;exitX=1;exitY=0.25;exitDx=0;exitDy=0;entryX=0.081;entryY=0.143;entryDx=0;entryDy=0;entryPerimeter=0;" edge="1" parent="1" source="xzRCNILNRrcAVQ5zMBgT-14" target="xzRCNILNRrcAVQ5zMBgT-66">
          <mxGeometry relative="1" as="geometry">
            <Array as="points">
              <mxPoint x="460" y="930" />
              <mxPoint x="545" y="930" />
            </Array>
          </mxGeometry>
        </mxCell>
        <mxCell id="cPhD02x5GdP_BrtT_khT-18" value="&lt;h4 style=&quot;margin-top: 0px;&quot;&gt;Pipeline Register &lt;span style=&quot;font-weight: 400;&quot;&gt;FF3&lt;/span&gt;&lt;/h4&gt;" style="text;html=1;whiteSpace=wrap;overflow=hidden;rounded=0;align=center;" vertex="1" parent="1">
          <mxGeometry x="1020" y="1148.75" width="126" height="31.25" as="geometry" />
        </mxCell>
        <mxCell id="cPhD02x5GdP_BrtT_khT-20" value="&lt;h1 style=&quot;margin-top: 0px;&quot;&gt;STAGE 3&lt;/h1&gt;" style="text;html=1;whiteSpace=wrap;overflow=hidden;rounded=0;" vertex="1" parent="1">
          <mxGeometry x="890" y="1211.25" width="110" height="40" as="geometry" />
        </mxCell>
        <mxCell id="cPhD02x5GdP_BrtT_khT-22" value="&lt;h1&gt;&lt;b&gt;&lt;font&gt;&amp;lt;&amp;lt; 1&lt;/font&gt;&lt;/b&gt;&lt;/h1&gt;" style="rounded=0;whiteSpace=wrap;html=1;" vertex="1" parent="1">
          <mxGeometry x="1132" y="1078.25" width="84" height="42.5" as="geometry" />
        </mxCell>
        <mxCell id="cPhD02x5GdP_BrtT_khT-23" style="edgeStyle=orthogonalEdgeStyle;rounded=0;orthogonalLoop=1;jettySize=auto;html=1;exitX=1;exitY=0.5;exitDx=0;exitDy=0;" edge="1" parent="1" source="cPhD02x5GdP_BrtT_khT-24" target="cPhD02x5GdP_BrtT_khT-27">
          <mxGeometry relative="1" as="geometry" />
        </mxCell>
        <mxCell id="cPhD02x5GdP_BrtT_khT-24" value="&lt;h1&gt;&lt;font style=&quot;font-size: 46px;&quot;&gt;&amp;nbsp;+&lt;/font&gt;&lt;/h1&gt;" style="shape=step;perimeter=stepPerimeter;whiteSpace=wrap;html=1;fixedSize=1;" vertex="1" parent="1">
          <mxGeometry x="1239" y="975.88" width="73" height="82.75" as="geometry" />
        </mxCell>
        <mxCell id="cPhD02x5GdP_BrtT_khT-25" value="&lt;h4 style=&quot;margin-top: 0px;&quot;&gt;5A + 5B - 4C + 3D = X&lt;/h4&gt;" style="text;html=1;whiteSpace=wrap;overflow=hidden;rounded=0;align=center;" vertex="1" parent="1">
          <mxGeometry x="1210" y="945.25" width="130" height="32.5" as="geometry" />
        </mxCell>
        <mxCell id="cPhD02x5GdP_BrtT_khT-27" value="&lt;h1&gt;X&lt;/h1&gt;" style="rounded=0;whiteSpace=wrap;html=1;fillColor=#f5f5f5;strokeColor=#666666;gradientColor=#b3b3b3;" vertex="1" parent="1">
          <mxGeometry x="1370" y="975.25" width="60" height="85" as="geometry" />
        </mxCell>
        <mxCell id="cPhD02x5GdP_BrtT_khT-29" value="&lt;h4 style=&quot;margin-top: 0px;&quot;&gt;Output X&lt;/h4&gt;" style="text;html=1;whiteSpace=wrap;overflow=hidden;rounded=0;align=center;" vertex="1" parent="1">
          <mxGeometry x="1367.5" y="1068" width="65" height="32.5" as="geometry" />
        </mxCell>
        <mxCell id="cPhD02x5GdP_BrtT_khT-31" value="&lt;h1 style=&quot;margin-top: 0px;&quot;&gt;STAGE 4&lt;/h1&gt;" style="text;html=1;whiteSpace=wrap;overflow=hidden;rounded=0;" vertex="1" parent="1">
          <mxGeometry x="1170" y="1211.25" width="110" height="40" as="geometry" />
        </mxCell>
        <mxCell id="cPhD02x5GdP_BrtT_khT-34" style="edgeStyle=orthogonalEdgeStyle;rounded=0;orthogonalLoop=1;jettySize=auto;html=1;exitX=1;exitY=0.25;exitDx=0;exitDy=0;entryX=0.113;entryY=0.186;entryDx=0;entryDy=0;entryPerimeter=0;" edge="1" parent="1" source="xzRCNILNRrcAVQ5zMBgT-138" target="cPhD02x5GdP_BrtT_khT-24">
          <mxGeometry relative="1" as="geometry" />
        </mxCell>
        <mxCell id="cPhD02x5GdP_BrtT_khT-36" style="edgeStyle=orthogonalEdgeStyle;rounded=0;orthogonalLoop=1;jettySize=auto;html=1;exitX=1;exitY=0.5;exitDx=0;exitDy=0;entryX=0.387;entryY=1.02;entryDx=0;entryDy=0;entryPerimeter=0;" edge="1" parent="1" source="cPhD02x5GdP_BrtT_khT-22" target="cPhD02x5GdP_BrtT_khT-24">
          <mxGeometry relative="1" as="geometry" />
        </mxCell>
        <mxCell id="cPhD02x5GdP_BrtT_khT-38" value="" style="shape=image;verticalLabelPosition=bottom;labelBackgroundColor=default;verticalAlign=top;aspect=fixed;imageAspect=0;image=data:image/png,iVBORw0KGgoAAAANSUhEUgAAAsoAAACUCAYAAACKjQ/uAAAAAXNSR0IArs4c6QAAAARnQU1BAACxjwv8YQUAAAAJcEhZcwAADsMAAA7DAcdvqGQAACcRSURBVHhe7d0PbBvXnSfwr+z40itwMC4n8lCklyCNHUQS88+Ik9SOZUkO3Nreq51UJ252rzDc3diFql5y2G4PFzQwgyxw6HYXF18VYe3urm10F1cJQuvEm7gbbGRXaYxir+dLW0rs2k7TNA3ckKwjRbGtfxTvvcc31MxwRuRwSGmG/n6KZw3nD8knyunXP715rykvgIiIiIiILFRQPvLyz/RDIiIiIiKSikF5/6679S7vGLSJiIiIqNFYgvIPf/hDvdubjo4OHP6Hn+pHREREREThVxKUt27dqg9VRl7DoExEREREjWaV/krl/OQ5HPi9e1T7u5/ofZW49Pf4xlf/Hmn9kIiIiIjCoT5DL2Q4/Etg31/8IaLG4ydexf3fPo5tn5A7foS/+73TuPcfnkFMPlwu6n38OX6pH0pbEj/Ff75fP3Al3++38Yni+/fA/L2wf19ctH+2+vHiREREREsZ/UHh3jKZ/Yz7zPxsGxoxv9RpjLI1CKdf3IujrwM3//7xQiitMDDWnP11dXC+uVxYVuf9EruqCfbm16yw3/IHzfghJiIiIqoX+ZtyI8P52W5UJUFZhl6zLb+ewuu3/Bv9qNSZM2ccxygn+/fi/c8XKrDJ/ueAh4CX39uL/7b7FjWM4Rt6W4boZ779pr7qXvTIqi3swdQUvHW4LVSF9fmVVnmdgqo9yJY8t3ztL0Pk/II7v4avbHkV33J6z/YQLh//CXBU7d+Cn3/1P2LoF+oifOqJk4XvhQP5g0dERERUD/UKt42YX0qC8mdOP6kPATPP/lQF5X/+m4f1ngK53+AWlFUVGc+JMAi81v867uq7Fa9+9R1sF0Ey3X8P3nzIoYorxwH/uBOH+x4W4dp0TnE/rEM2nILvUhzPN0J4J950e+6lXsd4b59/x3pOSVAu8zxEREREy8xtOIXX7UZVcjOfDMHmIGxw2+8m+sB24N1fi8D4On6CW0UwvAWfwC+Rxq/x/q+6ca8RkmV4FP8Ckf8KOZAYBn71jrrxLfZQN17/8Y/UKckfX0TP50VYv/QO3sMwvmWcL6u/v5DPaSVDujou2jdeFO+hEhU+t+LynomIiIjCRAZdmWf8bjcq16EXNx4sdPyBP/oRZEXZCMnGfsM/dh5yrCgXK7UJ4E08oyrD6Refw88f6MSlvyxUlgtDHUw3+Vkqrr/Ga189jn//F514U1eifVdkna439pkrv/pQkfk6ue30nu3XO+03P488xwVv5iMiIqJ6qdd9UNfFzXy1GqMsyXHKL/8KuP9PdKiUY5O/e1E8qRyScUtJcFXjlV/fjudMj199dx3e+w96bLMK318GKpqpwkFJUDU/3xLPbb7O7T3LQGwaV23Zb762gpsCeTMfERER1VslQyoq2W5kS45RlmRFudqgbA++KnDaZpmQY5G/9YPC9qc+2w386lOLQdYpWOrnKE7xdufXFp+/HPu19psB3Z5b7jeFY7f3DNlffZNfcb+t0mxcy5v5iIiIaCWYM5vMHMZjP9uSfNxolqwoy2EWRlCW2w//z2P6yKJnXpp0DcpERERERGFV0cp8xrjk1z68r6QRERERETWikopyNVhRJiIiIqJGUwzKkp+xJQzKRERERNRILEGZiIiIiIgKVFCenJzUD4mIiIiISCoG5RMnTuhdRERERERkCcpvv/223k20fG677Tb1de/evUgkEmqbgsH82TQ1NaltIiKi60VF08MR1duePXv0FgVN0D6bfGqxERER1VPNgvIHz/0r1YiIiIiIGkFNgrIMyF9o+5JqDMtERERE1Ah8B2UjJBsYlomIiIioEfgKyvaQ/PX/9D3V/iURxY9XfxJzN9+pGhERERFR2FQdlJ1CsvTql/642P7Hnt/H//3tRwzLRH5Fu9CXSCARj+kdBbG42NfXhah+TERERLVTVVBeKiTbyX0yLMsK83eyr6hGRFXIppCKdKDLSMUiPHdEssjqh0RERFRbVVeUvzP2V6pJ//TmZ1Ur56Pt/1pvEZF3GYyNA62xQlKOdbYjMy52aNGuPjUPtWpGldmoRNv2O55LREREFlUF5X/7zGyxPbT+qt4rnuxLv9FbRFQP6ZEzyLR3IqaqyaM4ndQHxOOe9gyGdfgdzkRE+I0h3ivC9LAOxAOjheqz47lERERk5+tmvj/7eelQC3tY3v5Xf62+/r97vqO+EpEfSYylWtAtA/CZEaT1XqTTyEDsT8RFPBZnDQ4iGY0ikjWFaYPTuYUjREREZFJ1UHYKyQYZlmVArjQkP/vssyWNiJwlT8vKcApjlnSbxKCqEI+hTX0VITgaQbM+auVwrj5CREREi6oKykuFZIMcsywDciWV5IMHD+qtAvtjIjJJj6A/YasCR7sQV3f5yRA8gNFsBNH0GFLNrSIwF04pcjqXYy+IiIhK+Bp6UUtGOGZIJqpCOg2096oxx4lEL1rHhzCSFkF4OCN2y32i9bYXKsyO56pnISIiIpOmvDA5OYkTJ07g7bff1rvLK1dVvvUTj+mtUl9o3qm3iIDbbrsNe/bswdq1a1V4ozqJxZFoG0NisPIRyebPpqmpSe9dWfmU3hCaWvQGERFRHVQdlCW3sPz1uwpjk4kqwaBcP3JBku5imExh2D5kowwGZSIiup75GnrhFIgZkomCIzmoh12oxtktiIiIvPA9RtkcjBmSiYiIiKhRWIZeEK0U49f7x48f13soKPjZEBHR9aokKMv/UyRaTvJnzwhj8meRgoOfDRERXc8sQXnv3r16N9HykZVKI4xRsPCzISKi65mnoMwZCageOOtFcNVr1gs5X3ojrsDJfoUPP7NwYb/CJ+x9C8yCI0RElZDTwxmNiIionhiUiYiIiIgcBDYof+sm95X9iIiIiIjqLZBB+c7ep9VXhmWiBpavsj1qak7HV7I1Mqf+NkJrZE79DXtrZE79bYQWcoG7mc8IyV/+7i/UV+krl7+ntyoU7UJfDzDUP4K03uVbPZ7TSSWv43aOsX8I6FmO91ojvJkvuOq2hLX8j2eVTxfoJax99CvQGrVfEj+zcGG/wifkfQtURdkIyXZeK8vRWCswnnQOiTJM9nUhqh965vd6Jx6fc8n+NZwY4rX+fhMRERFVIDBB2R6SL2+4XW8VeAnL0YjMkS4xMj2Cfj+VVr/X18CS/Wsg0a4+JBLdCFrRkIiIiK4PgRh6YQ/Jj5+f01vATefe0lsF5YdhxBBPtGFsIIOOnggyIma1NBeOpIYTGEybhyc4HE+KDVnh7W1HYXcWowP9GIH5usWv45l2tOskt+T1rrk2iq6+XrTr95BNpQARhBffl/163b/EIJJqezFIpkZHEWm1Db2IxZHojpR5DytryaEX8ntp9EXvouXDoRce8dfC4cPPLFzYr/AJed9WvKK8VEiWPFeWY21oSY2JECk0iyA8lFDhKzGcQkt3XERLE8fjInz2RnBG7pNtYBytPS6/+m9uR2TMdH2HPM/D9UoaI0OjyGZHMSDO7z+dsbyvgVGg3Xx9sX8yYHcDIpyr1xFNhXQzGTLVKcENyURERERBtaJBWYZeedOe0ewh2SDD8sTPflBsz/3m4/pIqVhbC1JjOjFmx1EcoZAcQwoRRM2J1el4LCr+bEG3Dp8JWRkWwdUx6Ipwe9oIp+kMsvKreIGKr3djel/p5DiypuuL/YvG0ArT69uJEN+rArusPBMRERGRVysalO3DKOzDLAyrjr2gtwqe+eRVvWUXRTSSRcZv9VRXd41KbcJr2PR7vSsP/RPvYXg0gu64pYZORERERBVa8aEX5cJy5SFZUFVWU5XYTA5ZMFeQ7Yzj4oRMczs6q82X6Sqvd6k6yxkumo2hJOb+pZNia+nXSY/0Yxjd6OvyVM8mIiIiIiEQs164hWVPIVkomTZNDj8wqrpyrK79hjDH40kMDowi0q33y+ZperIqrk+P4EyqMFyjrzNieV+9reMY0IOPrf0rjG02v45T8Tg5OIxMe28ow7Ka9UINXSl8P1gcJyIiouUUqAVHzDfqybHIZuVCshSLJ9A2Zpp5YqnZEkI4m4Klfw2EC44EF2e98Ih35IcPP7NwYb/CJ+R9C0RF2eA29VslIVnESLS1pGDcxxc8ciq3xervYutDZcXeoPePiIiIqLEEbglrSVaWjYpyZSGZwowV5eBasqIsqwR+VFlhCHxFuVE1crWrUTXiZ8bPK3xC/pkFqqJsMCrLDMlEASb/o15lO5g4KDYaj+qXQ3/D3hr185L4mYULP6/wCftnFsigLDEkExEREdFKCmxQJiIiIiJaSYENymWXqiYiIiIiqqNA3sx3Z+/TaklryW0mDGocvJkvuOp6M1+V8qYb+JpMN/YRERHVWuAqyjIkm1VVWZZzJHtaJKQC9XhOJ5W8znK9F6Kl2G548NJ83dzxfVNzOr6CraFvNHLY3wiNn1m4GvsVvhb2vgUqKNtDssFrWC5Zoc/Mb8gMQAhfsn92oQ/VMcT5jwIiIiJaAYEJyvaQfHnD7XqrwEtYjkZkjnSJkekR9PtZjc/v9TWwZP8aiFrCOtGNoE2VS0RERNeHQARle0h+/Pyc+lpdWJYr2GVEkJWV1DjifYur4MVj4rBRYVVfHY5L8pjeV7JynuX6LnTFPV5fIoqunnY0N7ejV5zf1ylSMCLoLL4v+/Xm/hmvHxd75cvKYKmvU1VY23NXtgRgYKRH+pEYGEVWPyYiIiJaTiselN1CssFzWI61oSU1BrXSc3MEmSEdHIdTaOkuBMoix+MxxHsjOGMEzoFxtPa4/OpfBNDImOn6Dnmeh+uVNEaGRBjMjmJAnN9/OmN5XyInot18vaV/xusPIinCeU97BsP6dYczEXGN7blHGr8KTURERFQrKxqUZeiVs1sYzR6SDTIsyyWtjfbcbz6uj5SKtbUgNaZiJJAdR3GEQnIMKYjwaE6sTsdjUfFnC7p14Ez0yoqsDJ0ORAA9rV8K6Uyh8ileoOLr3ZjeVzo5jqzpemv/zK+fRka9buEfA8lBEZ4LR4iIiIioCisalO1Tv9107i29ZbXq2At6q8B91b4oopEsMn4Lp7oCq4Kuah5Dp9/rXS3VvyQG1WuNoU19tVXPiYiIiMiTFR96US4sVx6ShWgMrTBVic3kkAVzBdnOOC5OyDS3o7PalCkru9Vc71J1ljNcNBtDLZbqX7QLcTUGWQbmAYxmxfMZT+i1ok1EREREwbiZzy0sewrJQsm0afomNlXV7QaG7bNVOB4XQXNgFJFuvV82dWNcpaq4Pj2CM6nCcA11M5/pffW2jmNgsFCPXnJaOBHQ0d6rX7MXreNDUEOSzc8dspv51M2JauhK4ftRvFmSiIiIaBkEamU+8416ciyyWbmQLMXiCbSNJaBypZx5ogcYcpvKrdzxALL0r4FwZb7gWnJlPh8OHjyIZ599Vj/yJm9aja8pYHMH+ulXkDVqvyR+ZuHCfoVP2PsWiIqywW256kpCsoiRaGtJwbjPLXhiiKtqr72Vmz7OEPT+ERERETWWQAVlyR6WKwvJkhyba7pprtzCIMu+cIhxs5299ReGSJRl6x8RERER1VXggrJkhOXKQzIRERERUW0FMihLDMlEREREtJICG5SJiIiIiFZSYINy2aWqiYiIiIjqKFDTwxnu7H1aLWktuc2EQY2D08MFl9v0cCfzJ/XW8jtsmhLugGmqOCIioloLXFCWIVkygrLkOSzXY47k5Zp3uZLXCeEc0EthUA4uzqPsDed4DR9+ZuHCfoVP2PtWk6EXD27ZhU0dn8N9n34ED27difs2bVMttrEd92zsxM233KPPXJoRku28DsNYcgU7GTI9rbRn4/d6Jx6f09q/KLr6Eh5XDwyTGOIN2zciIiIKMt9B+eGObdixbSO2d2zA7s88jB2dD2D39i2qde/qwqO7tuKJLz6KW1of0lc4s4fkyxtu11sFXsJyNCJzpEut1e/8ycs+/3IpS/+iMbQiJf7XiliDpUm1hHWiGwErGlJZ+/HKheexST8iIiIKK99BOb+gN8r4cOqK3iplD8mPn59TX6sLy3IFu4wIsrJKG0dcVlvVwh4JxGPisFG9VV8djkvymN5XsnKe5foudMU9Xl8iiq6edjQ3t6NXnN/XKVIwIugsvi/79bp/xZwsq8unMZZpRmuDJeX0SD8SA6PI6scUfJuev4B8/jB26MdERERh5j8o51frrUX2sYzzuQVMT8/oR1ZuIdngOSzH2tCSGiusYNccQWZIB87hFFq64yJmmjgejyHeG8EZFVJFGxhHa4/Lr/5FuI2Mma7vkOd5uF5JY2RIhMHsKAbE+f2nM5b3JXIi2s3Xm/snX02NwkgjOZZCc2tsidchqr+zT61H0+ZDuKgfExERhZnvoLyQc77BR4bjmdkcrlybw9Vr85ienddHFsnQK2/aM5o9JBtkWJ742Q+K7bnffFwfKRVra0FqTC/0nB1HcQRGcgwpRBA1J0mn47Go+LMF3UbQ7ZXVXrFfn2Yhwu1pY03pdKZQ+RQvUPH1bkzvK50cR9Z0vaV/atiFPle+/+bGG35BREREtFL8B2XT0AtZSTaqyWtuWI2P3XgDpq6IoDw9j32PbcW+ffss7dzutepcw03n3tJbVquOvaC3CtxX7YsiGskiY4Tfaunqrgq6qg3qCm6F/F7vyto/OezCGLJRGMvbeMMviIiIiFaK76CcE0HZqBxPTs3gd5PTav+lzBW8+9spzMyJYyIoH3/pLI4ePVrS7FO/2cNy5SFZMFdY7eSQBXMF2c44Lk7IiPDZaRmj4UG6yutdqs4qDBtDLSz9k8MumpEaNgXyYQ6/ICIiIqoV30F5Pr+ggrCsGqsmArNU3HdtHleuzmFupnTohcEtLHsKyULJtHDFaqto3cCwfbYKx+NJDA6MItKt98vmaXqyKq5Pj+BMqjBcQ93MZ3pfva3jGBgs1KMt/VOh2TT0Q2qw4Rdq1gs1dKXw/SjeLElERES0DHwvOHL3/Y/ggY33IreQx3wuj5y8cW8mp45Nz+ZUkxXnM6OvYc3Vt9V+N+Yb9eRYZLNyIVmKxRNoG0tA5Uo588RSi3KUOx5Alv41EC44ElxeFxyRs1688eQ6/Qg4daAJO4/oByZ+JqDngiPLj4shhA/7FS78OxZcvivKl7ITlsrxxNQsJj6axfuXr6mWFu2DD2ewtqn8PHJuK/BVEpJFjERbSwrGfW7BE0NcV4mtrdz0cYag949Iz3qh71WQzSkkExERhUVNlrA+/94McrkcZhfy6nFe5O8FeZffqiasEe3Bu2K4Oul8o54TWVk2KsqVhWQKM1aUg8utonwyf1JvLb/DpiryAVN1mYiIqNZqEpTrQU4Bx5B8fWBQDi6vQy8q5edXcRx6sfz4a+HwYb/ChX/Hgsv30It6YUgmIiIiopUU2KBMRERERLSi5NCLiYmJ/LFjx+RmYNx06Kd6ixqd/NmTP4MUPObPRv7nolbt4MGDjvsrafnUYnM6vpLNT7+C3Bq1X7LxMwtXY7/C18LeN09jlJfLd9Ozaklr6Xf/5W71lRrX8ePHi+NgKVjMnw1v5iMiouuODMpBqij/7/dnVJMVZaN5duH5/KZNz+cv6Ic1UY/ndFLJ6yzXe1kmrCgHFyvK3hqrXeFr/MzC1div8LWw960mY5RPvfZ/8OqZc3jxH3+EU6f/GS+++rpqwy+P4Psv/xDf/tvv6zOXJivJTv7d//qZ3qrMxZeHgJ5dWFz2wOTiIWzefAgX9UPP/F7vxONzqv7FxrFXz1VrtAOn9AkN5RQO1Pr7TURERFQB30H5n868jh3bNmJ7xwbs/szD2NH5AHZv36Ja964uPLprK5744qP42yHrSnt29pB8ecPteqvAS1i+MC5zsmNMBtY9iTfeeNI5RFfC7/U1oPq3p1Uug4YL+bz8rQDyF55H8s8aK1BePLRZ/ANgJ7hmRdjsxyvi53GTfkRERBRWvoNyvvyCe8qHU1f0Vil7SH78/Jz6Wl1YPoUTR2K4A7JKewAHNtsqrkb1Vn11OC7JY3pfU9NmHDKnT8v1h3DogMfrS1zEob1P4ezZp7BenL/5myIFYxzfLL4v+/W6f+v1Q4NIz2djd6xogK+1dU++of4BwMAVHnIJ63z+MHbox0RERGHmPyjnV+utRTLgmc3nFjA9PaMfWbmFZIPnsHzqBI7s31P4P+qzSbQe1xXXV/bjyM4DImaaOB4/hQPrx/H1YqW2B0N7XSq1ItyO7zFdryq6Hq5X1uHJ4yIM6urwG3/aanlfIifiKfP1lv4VwrUK1DuTeP5PGU9oZaklrDlUhoiIGoTvoLyQc16tS4bjmdkcrlybw9Vr85ienddHFsnQK2e3MJo9JBtkWJZLWhtt9R//uT5S6tSJI9i/RwfGTT0ojsDYsQf7kcT5C/qx5HT81Hnx5xHsNALoelntHYf5siIRbovZdH1rofJ50cP1bkzva92uHmwyXW/tn3noRblATkRERERe+A/KpqEXhaECheC85obV+NiNN2DqigjK0/PY99hWvPPOO5Z2brd1OrCbzr2lt6xWHXtBbxXk/vpresvuIs4nN6HVPizBK3MAVc3jr5L9Xu9qif6tuwMxr4GciIiIiFz5Dso5EZSNyvHk1Ax+Nzmt9l/KXMG7v53CzJw4JoLy8ZfO4tZbby1p9nmS7WG58pAsXHwZQzBVic3kkAVZqXUL0cbxHTJwPoVvVjuDhAqsVVzvEnLlDBdnjaEWZfvXCr//RiAiIiKiAt9BeT6/oIKwrBqrJgKzVNx3bR5Xrs5hbqZ06IXBLSx7CslCybRwljG8wCv22Socj+/AYTmDxE69XzZPYy6ruH7dk/j6/sJwDXUzn+l9rR/qwYXDhXq05/6FnJr1Qg1dKfSzMae/IyIioqCqwc18eRWOZSg2wvFP/yWrwvHE1CwyE9N4//I1LJjHaDiwh2WvIVm6MH4WsTtMUdEyBEIPfzBP7+Z0XJLnFPeLJs83rrN/1ZdYntfpenWSux2HC+e+cfiw67WW/tlfowFnGlCzXpj6qP+9QAGmZr0w/n6Iz+yV/foAERFRCPkOypeyE5bKsQzHEx/NqnAsW1q0Dz6cwdqm8vPIuS1XXUlIhpo2bT+M+9yC5xQOGNVfSys3fZwh6P0jkr/kWG/5+d7JSbCJiCjEmvLC5OQkTpw4gb179+rd3vzBE/8duVwOswtytT+55t+qQgV5VRPWiPbgXTF87b9+QR2rhJwNQ85uIVUWkinMjh8/jj179mDtWuvNnbTyzJ+NDL6Gk/mTemv5HW7RG8KBlN4gIiKqBxmUJyYm8seOHZObgbHqj76ht6jRyZ89+TNIwWP+bOR/LmrV/Kz9n08tNqfjK9n89CvIrVH7JRs/s3A19it8Lex98z30ol5YSSYiIiKileRp6EUikdBbRLVz2223FX+9z5+xYDF/NuahF34dPHgQzz77rH7kTd403KLJNAwjCPz0K8gatV8SP7NwYb/CJ+x9C2xF+Vs3Paa3iIiIiIiWXyArynf2Pq2WtJa+cvl76is1LlaUg8utosyb+YiI6HoQuKAsQ7JkBGXJc1iOdqGvBxjqH0Fa7/KtHs/ppJLXWa73skwYlIOLQy+84a+Fw4efWbiwX+ET9r7VZOjFg1t2YVPH53Dfpx/Bg1t34r5N21SLbWzHPRs7cfMt9+gzl2aEZDuvwzCisVZgPOkcImXI7OtCVD/0zO/1Tjw+p6V/sbgKl8UWj6lzGkcM8Vp/v4mIiIgq4DsoP9yxDTu2bcT2jg3Y/ZmHsaPzAezevkW17l1deHTXVjzxxUdxS+tD+gpn9pB8ecPteqvAS1iORmSOdKm1pkfQ76cS6/f6GjD6F+3qQ6IbGDYF5WG0iWjZGFT/RAcDVjSksvbjlQvPY5N+REREFFa+g3K+/IJ7yodTV/RWKXtIfvz8nPpaXViOoa0lI4KsrNLGEe9bDJGq2GpUb9VXh+OSPKb3JRJ96DKXMy3Xd6Er7vH6ElF09bSjubkdveL8vk6RghFBZ/F92a/X/UtHIQvLowODSOojUnLQ+jjM0iP9SAyMIqsfU/CpJawbcDl1IiK6PvkPyvnVemuRfSzjfG4B09Mz+pGVW0g2eA7LsTa0pMYKYbE5gsyQDpzDKbR0x63VVsfjMcR7IzijQqpoA+No7XH51b8It5Ex0/Ud8jwP1ytpjAyJMJgdxYA4v/90xvK+RE5Eu/l6o3/RGFqbZWDW+4kCQC1hvfkQKlqVnYiIKOB8B+WFnPMNPjIcz8zmcOXaHK5em8f07Lw+skiGXnnTntHsIdkgw7Jc0tpoz/3m4/pIqVhbC1JjuqaaHUdxBEZyDClEEDUnVqfjsaj4swXdRtDtldVesV+fZiHC7WmjfJvOFCqf4gUqvt6N6X2lk+PImq639k9WzomIiIioHvwHZdPQC1lJNqrJa25YjY/deAOmroigPD2PfY9txb59+yzt3O616lzDTefe0ltWq469oLcKnvnkVb1lF0U0kkXGb3rU1V0VdFXzOJzB7/WuTP1Lp5FpboXI9URERERUB76Dck4EZaNyPDk1g99NTqv9lzJX8O5vpzAzJ46JoHz8pbM4evRoSbNP/WYPy5WHZEEOR4CpSmwmhyyYK8h2xnFxQqa5HZ3V3hGnAmwV17tUneUMF83GUBJL/5I4LYdl9FqHk8TituElRERERFQV30F5Pr+ggrCsGqsmArNU3HdtHleuzmFupnTohcEtLHsKyULJtHD6BjlV1ZWzQ9hnq3A8nsTgwCgi3Xq/bJ6mJ6vi+vQIzqQKwzXUzXym99XbOo6BwUI92t4/ebPbwGhkcZiHaN3QoboBqFkv1NCVwvej4Wa+IyIiokDzveDI3fc/ggc23ovcQh7zuTxy8sa9mZw6Nj2bU01WnM+MvoY1V99W+92Yb9STY5HNyoVkKRZPoG0sAZUr5cwTSy3KUe54AFn610C44EhweV1wRM568caT6/Qj4NSBJuw8oh+Y+JmAnguOLD8uhhA+7Fe48O9YcPmuKF/KTlgqxxNTs5j4aBbvX76mWlq0Dz6cwdqm8vPIua3AV0lIFjESbS0pGPe5BU8McV31tbZy08cZgt4/Ij3rhb5XQTankExERBQWNVnC+vx7M8jlcphdyKvHeZG/F+RdfquasEa0B++K4eqk8416TmRl2agoVxaSKcxYUQ4ut4ryyfxJvbX8DpuqyAdM1WUiIqJaq0lQrgc5BRxD8vWBQTm4vA69qJSfX8Vx6MXy46+Fw4f9Chf+HQsu30Mv6oUhmYiIiIhWUmCDMhERERHRSgpsUC67VDURERERUR0Fcozynb1PqyWtJbeZMKhxcIxycPFmPiIiup4FLijLkCwZQVnyHJbrMUfycs27XMnrhHAO6KUwKAcXb+bzhjcahQ8/s3Bhv8In7H2rydCLB7fswqaOz+G+Tz+CB7fuxH2btqkW29iOezZ24uZb7tFnLs0IyXZeh2GUrNBnJkOmp5X2bPxe78Tjc6r+oRW9CfNy1XKe5kZavto87zSX5SYiIqLl5zsoP9yxDTu2bcT2jg3Y/ZmHsaPzAezevkW17l1deHTXVjzxxUdxS+tD+gpn9pB8ecPteqvAS1iORmROdqm1pkfQ76cS6/f6GlD9G+rHcKoFHXq1kmhXBzA82CDLV0fR1SfXFNdBeRjorvU/TqgO9uOVfB551V4Rj4iIiMLNd1DOl19wT/lw6oreKmUPyY+fn1NfqwvLcgW7jAiyskobR7zPqEomEJdlSaN6q746HJfkMb2vZOU8y/Vd6Ip7vL6ECIU97WhubkevOL+vU6RgRNBZfF/263X/RFJPDg4j096DrlgXelrHcbphVu2LItJsWoUwOYZUc4RBOdA24fkLh4EDelW+A8DhC8+LvUREROHlPyjnV+utRfaxjPO5BUxPz+hHVm4h2eA5LMfa0JIaK1RWRbjKDOnAOZxCS7ftV/iOx2OI90ZwRoVU0QbG0drjUs0U4TYyZrq+Q57n4XoljZGhUWSzoxgQ5/efzlje18Ao0G6+3tw/8edpeby7FeNDjTFeeZEIxsVOp5HJmh9T8MRwx7pTOGEsWX3kBE6tu8P6942IiChkfAflhZzzDT4yHM/M5nDl2hyuXpvH9Oy8PrJIhl55057R7CHZIMOyXNLaaHLVPjexthakjFJkdhzFERiyKmkJX4LT8VhU/NmCbiPo9spqr0s1U4TbYhU3nUFWfhUvUPH1bkzvK50cR9Z0vaV/Qlq8buNJYlD+A6NXfw8TvWhvLlTRKcjWo7VYQk7i/EXzYyIiovDxH5RNQy/Ur1x1NXnNDavxsRtvwNQVEZSn57Hvsa3Yt2+fpZ3bvVada7jp3Ft6y2rVsRf0VoH7qn1RRCNZZPwGKl3dLYQ02TyO/fV7vSt7/2KIy6G8wxlr1bkRyLHgxvdvQFbc5XAaCq4j2Ln5Zex6wxij/AaeXHcB42f1YSIiohDyHZRzIigblePJqRn8bnJa7b+UuYJ3fzuFmTlxTATl4y+dxdGjR0uafeo3e1iuPCQL0RhaYaoSm8khC+YKsp1xXJyQaW5HZ7W/M05Xeb1L1VnOcNFsDLWw9a94A1/yNEbh4z0HWmEMt+ssJhQcZ5/Cev2P5abNh3Dx4vka/QORiIhoZfgOyvP5BRWEZdVYNRGYpeK+a/O4cnUOczOlQy8MbmHZU0gWSqaF0zfIqaqkrLzaZ6twPC5/7T+KSLfeL5unGRequD49gjOpwnANdTOf6X31to5jYLAQNyz9i8XVscLQj8I454h9DHaYif4Vvn+9aB0fQP8IY3J4bMLzx58EXh4CC8pERBRmvhccufv+R/DAxnuRW8hjPpdHTt64N5NTx6Znc6rJivOZ0dew5urbar8b8416ciyyWbmQLMXiCbSNJaBypZx5YqlFOcodDyBL/xoIFxwJLk8Ljux/BfnDO9TmxUObsf4p95jsZwJ6Ljiy/LgYQviwX+HCv2PB5buifCk7YakcT0zNYuKjWbx/+ZpqadE++HAGa5vKzyPntgJfJSFZxEi0tZimFAsc8wIa5lZu+jhD0PtH170jO4v3KSwVkomIiMKiqoqy/JeB/BeC4fx7M8jlcphdyKvHeZG/F+RdfquasEa0B++K4eqk8416TmRl2agoVxaSKcxYUQ4ut4ryyfxJvbX8DpuqyAdM1WUiIqJaqzooS+awXGtyCjiG5OsDg3JweRp64YGfX8Vx6MXya9R+SfzMwoX9Cp+w963qoRf17jhDMhERERGtKFlRnpiYyB87dkxuLkmEY9XkZeZtNjYvzfjZMZr82ZM/g/afMbblb+bPRTbzZ+N0frXNz2ecTy02p+Mr2fz0K8itUfslGz+zcDX2K3wt7H3zNUbZ+ErkB4deBBeHXnjjp19B1qj9kviZhQv7FT7h7hvw/wHV264c85w/4QAAAABJRU5ErkJggg==;" vertex="1" parent="1">
          <mxGeometry y="1360" width="690" height="143.03" as="geometry" />
        </mxCell>
        <mxCell id="cPhD02x5GdP_BrtT_khT-39" value="&lt;h2&gt;&lt;b&gt;For A=B=C=D=1,&lt;br&gt;&lt;/b&gt;&lt;b&gt;5A + 5B - 4C + 3D = 9&lt;/b&gt;&lt;/h2&gt;" style="text;html=1;labelBackgroundColor=light-dark(default, #ffffff);" vertex="1" parent="1">
          <mxGeometry y="1290" width="300" height="50" as="geometry" />
        </mxCell>
      </root>
    </mxGraphModel>
  </diagram>
</mxfile>
